<?xml version="1.0" encoding="UTF-8"?>
<svg width="310" height="150" data-name="Layer 1" version="1.1" viewBox="0 0 310 150" xmlns="http://www.w3.org/2000/svg">
 <defs>
  <style>.cls-1{fill:none;}.cls-2{fill:#00a754;}.cls-3{fill:#ffa21f;}.cls-4{fill:#7eb41f;}.cls-5{fill:#9200fa;}.cls-6{fill:#f50;}.cls-7{fill:#49539f;}.cls-8{fill:#b55735;}.cls-9{fill:#d63886;}.cls-10{fill:#be2a7e;}.cls-11{clip-path:url(#clip-path);}.cls-12{clip-path:url(#clip-path-2);}.cls-13{clip-path:url(#clip-path-3);}.cls-14{clip-path:url(#clip-path-4);}.cls-15{clip-path:url(#clip-path-5);}</style>
  <clipPath id="clip-path">
   <rect class="cls-1" x="-184.2" y="213.5" width="1600" height="481.3"/>
  </clipPath>
  <clipPath id="clip-path-2">
   <rect class="cls-1" x="1.89" y="-351.6" width="1824" height="1216"/>
  </clipPath>
  <clipPath id="clip-path-3">
   <rect class="cls-1" x="1.89" y="-331.6" width="1824" height="1216"/>
  </clipPath>
  <clipPath id="clip-path-4">
   <rect class="cls-1" x="-225.3" y="4.21" width="1206" height="803.7"/>
  </clipPath>
  <clipPath id="clip-path-5">
   <rect class="cls-1" x="-225.3" y="4.21" width="1206" height="803.7"/>
  </clipPath>
 </defs>
 <g fill="#b3b3b3">
  <rect y="-7.376e-7" width="310" height="150" style="paint-order:fill markers stroke"/>
  <g stroke="#ccc" stroke-width="4">
   <path class="cls-2" d="m152.8 133.3a13.42 13.42 0 0 1-2.708-4.562l-22.84-66.69a13.33 13.33 0 0 1 25.16-8.829l10.27 29.9-12.6 36.93a13.36 13.36 0 0 0 2.708 13.24z"/>
   <path class="cls-3" d="m198.1 62.1-22.81 66.69a13.36 13.36 0 0 1-8.152 8.24 13.33 13.33 0 0 0 8.24-16.92l-12.68-36.7 10.33-29.93a13.3 13.3 0 0 1 25.07 8.623z"/>
   <path class="cls-4" d="m175.2 120.1-12.57-36.7-12.6 36.7a13.36 13.36 0 0 0 5.886 15.8l0.9418 0.5003 0.412 0.1766 0.5886 0.2649 0.5003 0.1766 0.5298 0.1766h0.6475l0.9712 0.206h4.326l0.9123-0.206a10.15 10.15 0 0 0 1.266-0.3532l0.7063-0.2649 0.6769-0.2943 0.4709-0.2355h0.1766l0.3532-0.206 0.2943-0.1766 0.5003-0.3237 0.412-0.3237 0.3532-0.2943 0.412-0.3237 0.7358-0.7063 0.8535-0.9712c0.206-0.2354 0.3826-0.5003 0.5886-0.7652a13.16 13.16 0 0 0 1.913-4.12 5.886 5.886 0 0 0 0.2354-0.9712 13.16 13.16 0 0 0-0.5003-6.769z"/>
   <path class="cls-5" d="m226.4 79.02a29.43 29.43 0 1 0 29.43 29.43 29.43 29.43 0 0 0-29.43-29.43m7.858 37.46a8.123 8.123 0 1 1 8.123-8.093 8.093 8.093 0 0 1-8.123 8.093"/>
   <path class="cls-6" d="m235.1 44.44a52.97 52.97 0 0 0-16.69 2.325c-6.74 2.443-9.947 5.268-10.74 9.241a10.42 10.42 0 0 0 8.034 12.24 11.01 11.01 0 0 0 4.974-0.2649 39.47 39.47 0 0 1 6.975-1.589h2.266c10.01 0 15.75 5.562 15.75 13.89v43.62s-0.7358 13.92 13.36 13.92a13.45 13.45 0 0 0 13.33-13.92v-46.41c0-24.22-16.69-33.05-37.26-33.05z"/>
   <path class="cls-10" d="m246.6 129.8a29.43 29.43 0 0 0-0.9418-43.5v37.61a16.69 16.69 0 0 0 0.9418 5.886z"/>
   <path class="cls-10" d="m52.63 102.7v1.413a12.95 12.95 0 0 0 12.95 12.3h2.296l9.182-26.66h-11.45a13.01 13.01 0 0 0-12.98 12.95z"/>
   <path class="cls-10" d="m85.24 66.16 12.63-36.7a12.57 12.57 0 0 0 0.412-6.887 2.354 2.354 0 0 0 0-0.4415v-0.2943a8.123 8.123 0 0 0-0.2354-0.7946v-0.618-0.3237-0.2354a13.57 13.57 0 0 0-1.53-2.619l-0.618-0.7652-0.2649-0.2649a12.89 12.89 0 0 0-8.829-4.091h-1.501a12.74 12.74 0 0 0-4.003 0.7063l-0.6769 0.2354a12.74 12.74 0 0 0-5.003 3.149l-0.2649 0.2649-0.618 0.7652a12.24 12.24 0 0 0-2.56 5.445 11.77 11.77 0 0 0-0.2649 3.414 12.1 12.1 0 0 0 0.6769 3.473z"/>
   <path class="cls-6" d="m72.03 22.57-33.7 97.71a13.01 13.01 0 0 0 8.123 16.51l0.6769 0.2354a13.01 13.01 0 0 0 16.51-8.034l4.356-12.57h-2.384a12.95 12.95 0 0 1-12.95-12.3v-1.413a13.01 13.01 0 0 1 12.98-12.98h11.48l8.064-23.37v-0.1766l-12.6-36.67a12.1 12.1 0 0 1-0.6769-3.473 11.77 11.77 0 0 1 0.2649-3.414 10.48 10.48 0 0 1 0.4415-1.736l-0.5886 1.678z"/>
   <path class="cls-5" d="m124.1 136.8-0.6475 0.2649a13.01 13.01 0 0 1-16.51-8.064l-4.356-12.57h-34.64l9.182-26.66h16.27l-8.064-23.37v-0.2354l12.57-36.7a12.57 12.57 0 0 0 0.412-6.887 2.354 2.354 0 0 0 0-0.4415v-0.2943a8.123 8.123 0 0 0-0.2354-0.7946l0.5886 1.707 33.49 97.56a12.98 12.98 0 0 1-8.064 16.48z"/>
  </g>
 </g>
</svg>
