<?xml version="1.0" encoding="UTF-8"?>
<svg data-name="Layer 1" version="1.1" viewBox="0 0 56.06 56.06" xmlns="http://www.w3.org/2000/svg">
 <defs>
  <style>.cls-1{fill:#fff;}.cls-2{fill:#ab00ff;}.cls-3{fill:#ff5300;}.cls-4{fill:#de1f81;}.cls-5{fill:#ffa200;}</style>
 </defs>
 <circle class="cls-1" cx="28.06" cy="28.03" r="28"/>
 <path class="cls-2" d="M42.62,39.86,32.12,9.41l-.2-.56a3.94,3.94,0,0,0-.6-1.13l-.2-.24L31,7.39a4,4,0,0,0-3-1.27,4.16,4.16,0,0,0-1.25.22l-.21.07a4.11,4.11,0,0,0-1.56,1l-.08.09-.2.24a4,4,0,0,0-.67,3.84l4,11.49,2.51,7.29H21.89a4,4,0,0,0-4,4v.23a4,4,0,0,0,4,4H33.4l1.36,3.92a4,4,0,0,0,5.14,2.51l.21-.07A4.06,4.06,0,0,0,42.62,39.86Z"/>
 <path class="cls-3" d="M31.92,11.55,28,23l-2.51,7.27-2.86,8.3L21.25,42.5A4,4,0,0,1,16.11,45l-.21-.07a4,4,0,0,1-2.5-5.13L23.88,9.41l.19-.57a4.39,4.39,0,0,1,.61-1.13l.19-.23L25,7.39a4,4,0,0,1,3-1.27,4.15,4.15,0,0,1,1.24.22l.21.07a4,4,0,0,1,1.56,1l.08.09.19.23a4,4,0,0,1,.8,1.7,3.93,3.93,0,0,1-.13,2.14"/>
 <path class="cls-4" d="M25.44,30.3H21.89a4,4,0,0,0-4,4v.23a4,4,0,0,0,4,4h.69l0-.06Z"/>
 <path class="cls-4" d="M32.05,9.37a4,4,0,0,0-.8-1.7l-.19-.23L31,7.35a4,4,0,0,0-1.56-1l-.21-.07A4,4,0,0,0,28,6.08a4.09,4.09,0,0,0-1.23.22l-.21.07a4.11,4.11,0,0,0-1.56,1l-.08.09-.2.24a4,4,0,0,0-.67,3.84L28,22.91l3.93-11.4A3.93,3.93,0,0,0,32.05,9.37Z"/>
 <path class="cls-5" d="M47.85,8.21A28,28,0,1,0,56.06,28,28,28,0,0,0,47.85,8.21Zm-2,37.63A25.2,25.2,0,1,1,53.21,28,25.15,25.15,0,0,1,45.84,45.84Z"/>
</svg>
