<?xml version="1.0" encoding="UTF-8"?>
<svg data-name="Layer 1" version="1.1" viewBox="0 0 261.7 50" xmlns="http://www.w3.org/2000/svg" xmlns:xlink="http://www.w3.org/1999/xlink">
 <defs>
  <style>.cls-1{fill:none;}.cls-2{fill:#00a754;}.cls-3{fill:#ffa21f;}.cls-4{fill:#7eb41f;}.cls-5{fill:#9200fa;}.cls-6{fill:#f50;}.cls-7{fill:#49539f;}.cls-8{fill:#b55735;}.cls-9{fill:#d63886;}.cls-10{fill:#be2a7e;}.cls-11{clip-path:url(#clip-path);}.cls-12{clip-path:url(#clip-path-2);}.cls-13{clip-path:url(#clip-path-3);}.cls-14{clip-path:url(#clip-path-4);}.cls-15{clip-path:url(#clip-path-5);}</style>
  <clipPath id="clip-path">
   <rect class="cls-1" x="-184.2" y="213.5" width="1600" height="481.3"/>
  </clipPath>
  <clipPath id="clip-path-2">
   <rect class="cls-1" x="1.89" y="-351.6" width="1824" height="1216"/>
  </clipPath>
  <clipPath id="clip-path-3">
   <rect class="cls-1" x="1.89" y="-331.6" width="1824" height="1216"/>
  </clipPath>
  <clipPath id="clip-path-4">
   <rect class="cls-1" x="-225.3" y="4.21" width="1206" height="803.7"/>
  </clipPath>
  <clipPath id="clip-path-5">
   <rect class="cls-1" x="-225.3" y="4.21" width="1206" height="803.7"/>
  </clipPath>
 </defs>
 <path class="cls-2" d="m39.13 41.21a4.56 4.56 0 0 1-0.92-1.55l-7.76-22.66a4.52 4.52 0 0 1 8.55-3l3.49 10.16-4.28 12.55a4.54 4.54 0 0 0 0.92 4.5z"/>
 <path class="cls-3" d="M54.52,17,46.77,39.66A4.54,4.54,0,0,1,44,42.46a4.53,4.53,0,0,0,2.8-5.75L42.49,24.24,46,14.07A4.52,4.52,0,0,1,54.52,17Z"/>
 <path class="cls-4" d="M46.76,36.71,42.49,24.24,38.21,36.71a4.54,4.54,0,0,0,2,5.37l.32.17.14.06.2.09.17.06.18.06.13,0,.09,0,.33.07.19,0,.18,0h.73l.19,0,.18,0,.31-.07a3.45,3.45,0,0,0,.43-.12h0l.24-.09.23-.1h0l0,0,.16-.08.06,0,.12-.07.1-.06.17-.11h0l.14-.11h0l.12-.1h0l.14-.11h0l.25-.24L46,41c.07-.08.13-.17.2-.26a4.47,4.47,0,0,0,.65-1.4,2,2,0,0,0,.08-.33A4.47,4.47,0,0,0,46.76,36.71Z"/>
 <path class="cls-2" d="M88.65,42.72a4.53,4.53,0,0,1-4.54-4.53L84,15.64a4.57,4.57,0,0,1,4-4.57,4.53,4.53,0,0,1,5.09,4.5l.08,22.62a4.53,4.53,0,0,1-4.53,4.53"/>
 <path class="cls-5" d="m112.6 15.07a4 4 0 0 1 4-4h10.5a4 4 0 1 1 0.11 8.07h-10.57a4 4 0 0 1-4-4"/>
 <path class="cls-5" d="m64.15 22.75a10 10 0 1 0 10 10 10 10 0 0 0-10-10m2.67 12.73a2.76 2.76 0 1 1 2.76-2.75 2.75 2.75 0 0 1-2.76 2.75"/>
 <path class="cls-5" d="m97.76 11a18 18 0 0 0-5.68 0.79c-2.29 0.83-3.38 1.79-3.64 3.14a3.52 3.52 0 0 0 2.72 4.16 3.72 3.72 0 0 0 1.69-0.09 13.41 13.41 0 0 1 2.37-0.54h0.77c3.4 0 5.35 1.89 5.35 4.72v14.82s-0.24 4.73 4.54 4.73a4.57 4.57 0 0 0 4.53-4.73v-15.77c0-8.23-5.67-11.23-12.65-11.23z"/>
 <path class="cls-3" d="m127.2 34.63h-1.13v-26.86a4.53 4.53 0 0 0-5.06-4.5 4.57 4.57 0 0 0-4 4.57v30.33a4.53 4.53 0 0 0 2.85 4.21 4 4 0 0 0 1.59 0.33h5.87a4 4 0 0 0 4-3.74 4.08 4.08 0 0 0-4.12-4.34z"/>
 <path class="cls-6" d="M67.1,11a18,18,0,0,0-5.67.79c-2.29.83-3.38,1.79-3.65,3.14a3.54,3.54,0,0,0,2.73,4.16A3.74,3.74,0,0,0,62.2,19a13.41,13.41,0,0,1,2.37-.54c.26,0,.52,0,.77,0,3.4,0,5.35,1.89,5.35,4.72V38s-.25,4.73,4.54,4.73A4.57,4.57,0,0,0,79.76,38V22.23C79.76,14,74.09,11,67.1,11Z"/>
 <path class="cls-7" d="M91.44,12.06c-1.85.77-2.76,1.67-3,2.88a3.51,3.51,0,0,0,2.72,4.16A3.59,3.59,0,0,0,92.85,19l.27-.08,0-3.32A4.5,4.5,0,0,0,91.44,12.06Z"/>
 <path class="cls-2" d="M156.93,29.68H142.78a3.67,3.67,0,0,1-.75-.07,17.31,17.31,0,0,1-.2-2.85,14.85,14.85,0,0,1,.77-5.15h9.18a16.71,16.71,0,0,1,.61,3.24,7.39,7.39,0,0,1,0,.85,4.27,4.27,0,0,0,4.29,4Z"/>
 <path class="cls-6" d="M160.73,25.63v.21a.41.41,0,0,0,0,.11h0a4,4,0,0,1-3.06,3.62l-.19,0-.19,0-.16,0h-.4a4.27,4.27,0,0,1-4.29-4,7.39,7.39,0,0,0,0-.85,16.71,16.71,0,0,0-.61-3.24c-.71-2.28-2-3.52-4.47-3.52a4.8,4.8,0,0,0-4.71,3.52,14.85,14.85,0,0,0-.77,5.15,17.31,17.31,0,0,0,.2,2.85c.56,3.5,2.45,6,7.32,5.92,1.27,0,2.86-.84,4.48-1.55a3.48,3.48,0,0,1,3.72,1.46,3.24,3.24,0,0,1-.79,4.51,15.06,15.06,0,0,1-7.4,2.65c-10.41,1-16.27-6.57-16.24-15.84,0-8.7,5-15.75,14.19-15.75a13,13,0,0,1,13.21,11.32c.09.61.18,2.33.2,3.08h0A1.48,1.48,0,0,1,160.73,25.63Z"/>
 <path class="cls-8" d="m138.7 25.66a4 4 0 0 0 3.29 4 18.48 18.48 0 0 1-0.2-2.85 14.85 14.85 0 0 1 0.77-5.15 4 4 0 0 0-3.86 4z"/>
 <path class="cls-8" d="m160.7 26v-0.2-0.3a4.1 4.1 0 0 0-4.15-3.88h-4.8a16.71 16.71 0 0 1 0.61 3.24 7.39 7.39 0 0 1 0 0.85 4.27 4.27 0 0 0 4.29 4 5.65 5.65 0 0 0 0.59 0h0.15a4 4 0 0 0 3.31-3.71z"/>
 <rect class="cls-9" x="117" y="11.04" width="9.06" height="8.08"/>
 <path class="cls-10" d="M71,40a10,10,0,0,0-.32-14.78V38A5.67,5.67,0,0,0,71,40Z"/>
 <path class="cls-10" d="m5.1 30.8v0.25 0.23a4.4 4.4 0 0 0 4.4 4.18h0.78l3.12-9.06h-3.89a4.42 4.42 0 0 0-4.41 4.4z"/>
 <path class="cls-10" d="M16.18,18.38,20.47,5.91a4.27,4.27,0,0,0,.14-2.34.8.8,0,0,0,0-.15l0-.1a2.76,2.76,0,0,0-.08-.27l0-.15h0l0-.06h0s0-.08,0-.11l0-.08h0a4.61,4.61,0,0,0-.52-.89l-.21-.26-.09-.09a4.38,4.38,0,0,0-3-1.39H16.2a4.33,4.33,0,0,0-1.36.24l-.23.08a4.33,4.33,0,0,0-1.7,1.07l-.09.09-.21.26a4.16,4.16,0,0,0-.87,1.85,4,4,0,0,0-.09,1.16,4.11,4.11,0,0,0,.23,1.18Z"/>
 <path class="cls-6" d="m11.69 3.57-11.45 33.2a4.42 4.42 0 0 0 2.76 5.61l0.23 0.08a4.42 4.42 0 0 0 5.61-2.73l1.48-4.27h-0.81a4.4 4.4 0 0 1-4.4-4.18v-0.23-0.25a4.42 4.42 0 0 1 4.41-4.41h3.9l2.74-7.94v-0.06l-4.28-12.46a4.11 4.11 0 0 1-0.23-1.18 4 4 0 0 1 0.09-1.16 3.56 3.56 0 0 1 0.15-0.59s-0.2 0.57-0.2 0.57z"/>
 <path class="cls-5" d="m29.37 42.38-0.22 0.09a4.42 4.42 0 0 1-5.61-2.74l-1.48-4.27h-11.77l3.12-9.06h5.53l-2.74-7.94v-0.08l4.27-12.47a4.27 4.27 0 0 0 0.14-2.34 0.8 0.8 0 0 0 0-0.15v-0.1a2.76 2.76 0 0 0-0.08-0.27l0.2 0.58 11.38 33.15a4.41 4.41 0 0 1-2.74 5.6z"/>
 <path d="M185.11,11h3.94a.4.4,0,0,1,.29.11.38.38,0,0,1,.12.28.34.34,0,0,1-.12.27.39.39,0,0,1-.29.1h-3.61l.11-.18v2.76l-.12-.11h3.13a.43.43,0,0,1,.29.1.34.34,0,0,1,.11.28.3.3,0,0,1-.11.26.44.44,0,0,1-.29.11h-3.1l.09-.1v2.83l-.07-.07h3.57a.37.37,0,0,1,.29.12.34.34,0,0,1,.12.26.36.36,0,0,1-.12.28.39.39,0,0,1-.29.1h-3.94a.41.41,0,0,1-.3-.12.34.34,0,0,1-.12-.27V11.37a.36.36,0,0,1,.12-.27A.41.41,0,0,1,185.11,11Z"/>
 <path d="M194.44,11a3.12,3.12,0,0,1,1.41.3,2.89,2.89,0,0,1,1,.81,3.56,3.56,0,0,1,.6,1.18,5.06,5.06,0,0,1,.2,1.41,4.67,4.67,0,0,1-.36,1.86,2.91,2.91,0,0,1-2.87,1.84h-2.76a.41.41,0,0,1-.3-.12.34.34,0,0,1-.12-.27V11.37a.36.36,0,0,1,.12-.27.41.41,0,0,1,.3-.12Zm-.11,6.64a2.2,2.2,0,0,0,2.22-1.46,4.14,4.14,0,0,0,.25-1.48,4.44,4.44,0,0,0-.14-1.11,3.19,3.19,0,0,0-.44-1,2.19,2.19,0,0,0-.77-.64,2.41,2.41,0,0,0-1.12-.24H192l.09-.09v6.08l-.07-.11Z"/>
 <path d="M205.1,11a.38.38,0,0,1,.28.11.37.37,0,0,1,.11.28v4.25a2.73,2.73,0,0,1-.38,1.45,2.83,2.83,0,0,1-1,1,2.92,2.92,0,0,1-1.49.38,3,3,0,0,1-1.49-.38,2.85,2.85,0,0,1-1.05-1,2.74,2.74,0,0,1-.39-1.45V11.37a.38.38,0,0,1,.12-.28.48.48,0,0,1,.32-.11.46.46,0,0,1,.29.11.38.38,0,0,1,.12.28v4.25a2,2,0,0,0,.28,1.06,2.08,2.08,0,0,0,.77.73,2,2,0,0,0,1,.27,2.12,2.12,0,0,0,1.06-.27,2.18,2.18,0,0,0,.78-.73,2,2,0,0,0,.29-1.06V11.37a.41.41,0,0,1,.11-.28A.38.38,0,0,1,205.1,11Z"/>
 <path d="M213.47,11.49a.36.36,0,0,1,.21.26.47.47,0,0,1-.1.33.3.3,0,0,1-.23.13.48.48,0,0,1-.28-.06,4.6,4.6,0,0,0-.82-.35,3.12,3.12,0,0,0-.93-.13,3.36,3.36,0,0,0-1.2.21,2.92,2.92,0,0,0-1,.63,2.77,2.77,0,0,0-.63,1,3,3,0,0,0-.23,1.22,3.2,3.2,0,0,0,.24,1.27,2.89,2.89,0,0,0,.64,1,2.84,2.84,0,0,0,.95.6,3.29,3.29,0,0,0,1.18.2,3.46,3.46,0,0,0,.92-.12,3.67,3.67,0,0,0,.81-.35.54.54,0,0,1,.3-.06.35.35,0,0,1,.24.14.42.42,0,0,1,.09.33.32.32,0,0,1-.2.24,2.76,2.76,0,0,1-.62.31c-.24.08-.5.15-.76.21a4.1,4.1,0,0,1-2.27-.19,3.82,3.82,0,0,1-1.23-.77,3.5,3.5,0,0,1-.85-1.19,3.81,3.81,0,0,1-.31-1.58A3.74,3.74,0,0,1,208.56,12a4,4,0,0,1,1.24-.79,4,4,0,0,1,1.52-.28,4.43,4.43,0,0,1,1.15.15A3.62,3.62,0,0,1,213.47,11.49Z"/>
 <path d="M218.36,12l-2.61,6.15a.32.32,0,0,1-.14.18.34.34,0,0,1-.22.07.39.39,0,0,1-.28-.09.37.37,0,0,1-.1-.25.36.36,0,0,1,0-.14l2.87-6.71a.36.36,0,0,1,.16-.2.3.3,0,0,1,.23-.06.4.4,0,0,1,.24.07.36.36,0,0,1,.15.19l2.85,6.65a.47.47,0,0,1,0,.16.38.38,0,0,1-.11.28.4.4,0,0,1-.28.1.39.39,0,0,1-.23-.07.36.36,0,0,1-.15-.19L218.13,12Zm-2,4.36.35-.76H220l.15.76Z"/>
 <path d="M228.54,11.49a.37.37,0,0,1,.2.26.42.42,0,0,1-.09.33.32.32,0,0,1-.24.13.48.48,0,0,1-.28-.06,4.6,4.6,0,0,0-.82-.35,3.12,3.12,0,0,0-.93-.13,3.27,3.27,0,0,0-1.19.21,2.86,2.86,0,0,0-1,.63,2.92,2.92,0,0,0-.63,1,3.23,3.23,0,0,0-.23,1.22,3.2,3.2,0,0,0,.24,1.27,3,3,0,0,0,.64,1,2.79,2.79,0,0,0,1,.6,3.23,3.23,0,0,0,1.17.2,3.46,3.46,0,0,0,.92-.12,4,4,0,0,0,.82-.35.49.49,0,0,1,.29-.06.39.39,0,0,1,.33.47.31.31,0,0,1-.19.24,3.08,3.08,0,0,1-.63.31q-.36.12-.75.21a4.14,4.14,0,0,1-2.28-.19,3.93,3.93,0,0,1-1.23-.77,3.64,3.64,0,0,1-.85-1.19,4,4,0,0,1-.3-1.58,3.73,3.73,0,0,1,.29-1.51,3.59,3.59,0,0,1,.83-1.2,3.93,3.93,0,0,1,1.23-.79,4,4,0,0,1,1.52-.28,4.37,4.37,0,0,1,1.15.15A3.68,3.68,0,0,1,228.54,11.49Zm-2.85,8.42a.58.58,0,0,1-.2,0,.65.65,0,0,1-.23-.13.3.3,0,0,1-.1-.2.35.35,0,0,1,.09-.22l.93-1.14h.51l-.68,1.5A.33.33,0,0,1,225.69,19.91Z"/>
 <path d="M233.42,12l-2.6,6.15a.34.34,0,0,1-.15.18.31.31,0,0,1-.21.07.38.38,0,0,1-.28-.09.38.38,0,0,1-.11-.25.78.78,0,0,1,0-.14L233,11.21a.41.41,0,0,1,.16-.2.32.32,0,0,1,.23-.06.4.4,0,0,1,.24.07.36.36,0,0,1,.15.19l2.86,6.65a1,1,0,0,1,0,.16.35.35,0,0,1-.12.28.4.4,0,0,1-.28.1.4.4,0,0,1-.37-.26L233.19,12Zm-2,4.36.35-.76h3.31l.14.76Zm.54-6a.31.31,0,0,1-.27-.14.59.59,0,0,1-.06-.39.78.78,0,0,1,.33-.55,1,1,0,0,1,.68-.22,1.24,1.24,0,0,1,.58.16l.54.31a.91.91,0,0,0,.46.16.33.33,0,0,0,.23-.1.4.4,0,0,0,.09-.27.25.25,0,0,1,.06-.24.28.28,0,0,1,.22-.09.31.31,0,0,1,.27.14.57.57,0,0,1,.07.38,1.06,1.06,0,0,1-.14.4.88.88,0,0,1-.79.39,1.32,1.32,0,0,1-.59-.15L233,9.8a1,1,0,0,0-.45-.15.37.37,0,0,0-.25.09.44.44,0,0,0-.14.28.22.22,0,0,1-.07.22A.27.27,0,0,1,231.93,10.32Z"/>
 <path d="M245,14.68a4.15,4.15,0,0,1-.27,1.52,3.56,3.56,0,0,1-.76,1.2,3.34,3.34,0,0,1-1.18.8,3.92,3.92,0,0,1-3,0,3.39,3.39,0,0,1-1.17-.8,3.58,3.58,0,0,1-.77-1.2,4.41,4.41,0,0,1,0-3,3.58,3.58,0,0,1,.77-1.2,3.53,3.53,0,0,1,1.17-.8,3.92,3.92,0,0,1,3,0,3.47,3.47,0,0,1,1.18.8,3.56,3.56,0,0,1,.76,1.2A4.19,4.19,0,0,1,245,14.68Zm-.87,0a3.33,3.33,0,0,0-.36-1.57,2.76,2.76,0,0,0-1-1.07,3,3,0,0,0-2.93,0,2.79,2.79,0,0,0-1,1.07,3.6,3.6,0,0,0,0,3.14,2.77,2.77,0,0,0,4.92,0A3.31,3.31,0,0,0,244.1,14.68Z"/>
 <path d="M251,11h3.94a.4.4,0,0,1,.29.11.38.38,0,0,1,.12.28.34.34,0,0,1-.12.27.39.39,0,0,1-.29.1h-3.61l.11-.18v2.76l-.12-.11h3.13a.41.41,0,0,1,.29.1.34.34,0,0,1,.11.28.3.3,0,0,1-.11.26.42.42,0,0,1-.29.11h-3.1l.09-.1v2.83l-.07-.07h3.57a.37.37,0,0,1,.29.12.34.34,0,0,1,.12.26.36.36,0,0,1-.12.28.39.39,0,0,1-.29.1H251a.41.41,0,0,1-.3-.12.34.34,0,0,1-.12-.27V11.37a.36.36,0,0,1,.12-.27A.41.41,0,0,1,251,11Z"/>
 <path d="M185.11,23.13a.51.51,0,0,1,.2,0,.37.37,0,0,1,.17.13l3,4.28h-.37l3-4.27a.35.35,0,0,1,.35-.17.38.38,0,0,1,.28.11.36.36,0,0,1,.12.28v6.62a.37.37,0,0,1-.12.27.41.41,0,0,1-.3.12.41.41,0,0,1-.31-.12.37.37,0,0,1-.12-.27V24.28l.25,0-2.64,3.87a.44.44,0,0,1-.15.12.28.28,0,0,1-.18,0,.3.3,0,0,1-.18,0,.31.31,0,0,1-.15-.12l-2.63-3.88.22-.24v6.07a.39.39,0,0,1-.39.39.37.37,0,0,1-.29-.12.4.4,0,0,1-.11-.27V23.52a.38.38,0,0,1,.12-.28A.44.44,0,0,1,185.11,23.13Z"/>
 <path d="M201.19,26.83a4.1,4.1,0,0,1-.27,1.51,3.51,3.51,0,0,1-.76,1.21,3.57,3.57,0,0,1-1.18.8,3.79,3.79,0,0,1-1.48.28,3.72,3.72,0,0,1-1.48-.28,3.53,3.53,0,0,1-1.17-.8,3.39,3.39,0,0,1-.77-1.21,4.1,4.1,0,0,1-.27-1.51,4.15,4.15,0,0,1,.27-1.52,3.57,3.57,0,0,1,.77-1.21,3.51,3.51,0,0,1,1.17-.79A3.72,3.72,0,0,1,197.5,23a3.79,3.79,0,0,1,1.48.29,3.55,3.55,0,0,1,1.18.79,3.7,3.7,0,0,1,.76,1.21A4.15,4.15,0,0,1,201.19,26.83Zm-.87,0a3.28,3.28,0,0,0-.36-1.57,2.65,2.65,0,0,0-1-1.07,2.93,2.93,0,0,0-2.92,0,2.65,2.65,0,0,0-1,1.07,3.28,3.28,0,0,0-.36,1.57A3.33,3.33,0,0,0,195,28.4a2.62,2.62,0,0,0,1,1.06,2.93,2.93,0,0,0,2.92,0,2.62,2.62,0,0,0,1-1.06A3.33,3.33,0,0,0,200.32,26.83Z"/>
 <path d="M206.49,23.13a2.14,2.14,0,0,1,1.48.48,1.73,1.73,0,0,1,.52,1.35,1.76,1.76,0,0,1-.21.85,1.68,1.68,0,0,1-.63.64,2.07,2.07,0,0,1-1,.26l0-.27a3.11,3.11,0,0,1,.79.1,2.49,2.49,0,0,1,.74.34,1.77,1.77,0,0,1,.53.62,1.87,1.87,0,0,1,.21.92,2.27,2.27,0,0,1-.2,1,1.75,1.75,0,0,1-.54.66,2.29,2.29,0,0,1-.76.35,3.56,3.56,0,0,1-.86.11h-2.9a.41.41,0,0,1-.3-.12.37.37,0,0,1-.12-.27V23.52a.38.38,0,0,1,.12-.28.44.44,0,0,1,.3-.11Zm-.12.77H204l.13-.19v2.75l-.12-.15h2.42a1.39,1.39,0,0,0,.88-.32,1.21,1.21,0,0,0,.35-.94,1.08,1.08,0,0,0-.33-.84A1.26,1.26,0,0,0,206.37,23.9Zm.08,3.19H204l.07-.07v2.84l-.08-.09h2.48a1.74,1.74,0,0,0,1.1-.33,1.2,1.2,0,0,0,.43-1,1.32,1.32,0,0,0-.23-.81,1.19,1.19,0,0,0-.58-.4A2.36,2.36,0,0,0,206.45,27.09Z"/>
 <path d="M211.76,30.13a.44.44,0,0,1-.14.28.43.43,0,0,1-.6,0,.38.38,0,0,1-.12-.28v-6.6a.37.37,0,0,1,.13-.29.47.47,0,0,1,.31-.11.44.44,0,0,1,.29.11.37.37,0,0,1,.13.29Z"/>
 <path d="M218.41,29.76a.38.38,0,0,1,.29.11.35.35,0,0,1,.12.28.34.34,0,0,1-.12.27.42.42,0,0,1-.29.11h-3.83a.41.41,0,0,1-.3-.12.37.37,0,0,1-.12-.27V23.52a.38.38,0,0,1,.12-.28.5.5,0,0,1,.32-.11.46.46,0,0,1,.29.11.39.39,0,0,1,.13.28V30l-.22-.19Z"/>
 <path d="M221.45,30.13a.39.39,0,0,1-.13.28.44.44,0,0,1-.3.12.41.41,0,0,1-.31-.12.37.37,0,0,1-.11-.28v-6.6a.4.4,0,0,1,.12-.29.5.5,0,0,1,.32-.11.48.48,0,0,1,.29.11.4.4,0,0,1,.12.29Z"/>
 <path d="M228.86,23.13a.44.44,0,0,1,.31.11.32.32,0,0,1,.14.28.36.36,0,0,1-.1.24l-4.8,6.1,0-.08h4.47a.4.4,0,0,1,.28.1.36.36,0,0,1,0,.54.41.41,0,0,1-.28.11h-5.16a.39.39,0,0,1-.31-.13.37.37,0,0,1-.12-.26.36.36,0,0,1,.1-.25l4.78-6.07.08.06H224a.44.44,0,0,1-.29-.11.37.37,0,0,1-.12-.27.34.34,0,0,1,.12-.27.43.43,0,0,1,.29-.1Z"/>
 <path d="M234.07,24.14l-2.6,6.15a.4.4,0,0,1-.15.19.34.34,0,0,1-.22.07.37.37,0,0,1-.28-.1.38.38,0,0,1-.1-.24,1,1,0,0,1,0-.15l2.87-6.7a.49.49,0,0,1,.16-.21.46.46,0,0,1,.23-.06.48.48,0,0,1,.24.07.38.38,0,0,1,.15.2L237.24,30a.5.5,0,0,1,0,.16.35.35,0,0,1-.12.28.4.4,0,0,1-.28.1.34.34,0,0,1-.22-.07.38.38,0,0,1-.15-.2l-2.66-6.16Zm-2,4.37.35-.76h3.31l.14.76Z"/>
 <path d="M244.25,23.63a.38.38,0,0,1,.2.27.42.42,0,0,1-.09.33.36.36,0,0,1-.23.13.51.51,0,0,1-.29-.06A3.32,3.32,0,0,0,243,24a3.1,3.1,0,0,0-.92-.14,3.29,3.29,0,0,0-1.2.22,2.69,2.69,0,0,0-1,.62,3,3,0,0,0-.63,1,3.19,3.19,0,0,0-.22,1.22,3.23,3.23,0,0,0,.23,1.27,2.89,2.89,0,0,0,.64.95,2.76,2.76,0,0,0,1,.61,3.52,3.52,0,0,0,1.18.2,3,3,0,0,0,.91-.13,3.94,3.94,0,0,0,.82-.34.51.51,0,0,1,.29-.06.38.38,0,0,1,.25.14.4.4,0,0,1,.09.32.38.38,0,0,1-.2.25,3.7,3.7,0,0,1-.63.3,4.61,4.61,0,0,1-.75.21,3.44,3.44,0,0,1-.78.08,4.07,4.07,0,0,1-1.49-.27,3.84,3.84,0,0,1-1.24-.76,3.42,3.42,0,0,1-.84-1.2,3.76,3.76,0,0,1-.31-1.57,4,4,0,0,1,.29-1.52,3.81,3.81,0,0,1,.83-1.19,3.76,3.76,0,0,1,1.23-.79A4.08,4.08,0,0,1,242.1,23a4,4,0,0,1,1.14.16A3.66,3.66,0,0,1,244.25,23.63Zm-2.85,8.43a.58.58,0,0,1-.2,0,.76.76,0,0,1-.23-.13.28.28,0,0,1-.09-.2.37.37,0,0,1,.08-.22l.94-1.14h.5l-.68,1.5A.33.33,0,0,1,241.4,32.06Z"/>
 <path d="M249.13,24.14l-2.6,6.15a.45.45,0,0,1-.14.19.36.36,0,0,1-.22.07.34.34,0,0,1-.28-.1.38.38,0,0,1-.11-.24.49.49,0,0,1,0-.15l2.86-6.7a.49.49,0,0,1,.16-.21.48.48,0,0,1,.24-.06.45.45,0,0,1,.23.07.38.38,0,0,1,.15.2L252.31,30a1,1,0,0,1,0,.16.35.35,0,0,1-.12.28.39.39,0,0,1-.28.1.36.36,0,0,1-.22-.07.38.38,0,0,1-.15-.2l-2.66-6.16Zm-2,4.37.35-.76h3.31l.14.76Zm.54-6a.3.3,0,0,1-.26-.14.56.56,0,0,1-.07-.4.88.88,0,0,1,.33-.55,1.08,1.08,0,0,1,.68-.21,1.13,1.13,0,0,1,.58.16l.55.31a.92.92,0,0,0,.45.15.28.28,0,0,0,.23-.1.37.37,0,0,0,.09-.27.27.27,0,0,1,.29-.32.31.31,0,0,1,.27.14.6.6,0,0,1,.07.37,1.12,1.12,0,0,1-.15.41.84.84,0,0,1-.31.28,1,1,0,0,1-.48.11,1.18,1.18,0,0,1-.58-.16l-.58-.3a1,1,0,0,0-.45-.16.37.37,0,0,0-.25.09.53.53,0,0,0-.14.28.23.23,0,0,1-.07.23A.32.32,0,0,1,247.64,22.47Z"/>
 <path d="M260.68,26.83a4.31,4.31,0,0,1-.26,1.51,3.55,3.55,0,0,1-1.94,2,3.84,3.84,0,0,1-1.49.28,3.75,3.75,0,0,1-1.48-.28,3.55,3.55,0,0,1-1.94-2,4.1,4.1,0,0,1-.27-1.51,4.15,4.15,0,0,1,.27-1.52,3.73,3.73,0,0,1,.77-1.21,3.51,3.51,0,0,1,1.17-.79A3.76,3.76,0,0,1,257,23a3.84,3.84,0,0,1,1.49.29,3.51,3.51,0,0,1,1.17.79,3.73,3.73,0,0,1,.77,1.21A4.37,4.37,0,0,1,260.68,26.83Zm-.86,0a3.17,3.17,0,0,0-.37-1.57,2.69,2.69,0,0,0-1-1.07,2.95,2.95,0,0,0-2.93,0,2.79,2.79,0,0,0-1,1.07,3.28,3.28,0,0,0-.36,1.57,3.33,3.33,0,0,0,.36,1.57,2.86,2.86,0,0,0,3.93,1.06,2.67,2.67,0,0,0,1-1.06A3.22,3.22,0,0,0,259.82,26.83Z"/>
 <path d="M186.9,42.78a3.74,3.74,0,0,1-1.43-.23,4.15,4.15,0,0,1-1.18-.76.58.58,0,0,1-.13-.15.39.39,0,0,1,0-.18.41.41,0,0,1,.12-.28.4.4,0,0,1,.29-.12.39.39,0,0,1,.27.1,3,3,0,0,0,.94.64,2.79,2.79,0,0,0,1.14.22,2.52,2.52,0,0,0,.89-.15,1.72,1.72,0,0,0,.63-.43.91.91,0,0,0,.23-.63,1.05,1.05,0,0,0-.26-.73,2,2,0,0,0-.69-.47,8,8,0,0,0-1-.33,7.31,7.31,0,0,1-.9-.28,3,3,0,0,1-.73-.41,1.88,1.88,0,0,1-.49-.6,1.93,1.93,0,0,1-.17-.84,1.72,1.72,0,0,1,.33-1,2,2,0,0,1,.9-.69,3.25,3.25,0,0,1,1.33-.25,3.79,3.79,0,0,1,1.26.21,2.41,2.41,0,0,1,1,.59.55.55,0,0,1,.2.37.35.35,0,0,1-.13.26.37.37,0,0,1-.29.13.31.31,0,0,1-.21-.07,1.82,1.82,0,0,0-.47-.38,3,3,0,0,0-.63-.26,2.72,2.72,0,0,0-.69-.09,2.5,2.5,0,0,0-.9.15,1.37,1.37,0,0,0-.61.41,1,1,0,0,0-.22.63,1,1,0,0,0,.24.69,2,2,0,0,0,.66.43,7.3,7.3,0,0,0,.9.31,8.11,8.11,0,0,1,1,.29,3.19,3.19,0,0,1,.78.41,1.62,1.62,0,0,1,.51.62,2,2,0,0,1,.19.92,1.63,1.63,0,0,1-.34,1,2.18,2.18,0,0,1-.91.71A3.56,3.56,0,0,1,186.9,42.78Z"/>
 <path d="M198.35,39a4.15,4.15,0,0,1-.27,1.52,3.73,3.73,0,0,1-.77,1.21,3.51,3.51,0,0,1-1.17.79,3.83,3.83,0,0,1-1.48.29,3.77,3.77,0,0,1-1.49-.29,3.49,3.49,0,0,1-1.94-2A4.15,4.15,0,0,1,191,39a4.1,4.1,0,0,1,.27-1.51,3.53,3.53,0,0,1,.77-1.21,3.57,3.57,0,0,1,2.66-1.08,3.82,3.82,0,0,1,1.48.28,3.55,3.55,0,0,1,1.94,2A4.1,4.1,0,0,1,198.35,39Zm-.87,0a3.33,3.33,0,0,0-.36-1.57,2.76,2.76,0,0,0-1-1.06,2.72,2.72,0,0,0-1.46-.39,2.78,2.78,0,0,0-1.47.39,2.67,2.67,0,0,0-1,1.06,3.22,3.22,0,0,0-.37,1.57,3.17,3.17,0,0,0,.37,1.57,2.69,2.69,0,0,0,1,1.07,2.78,2.78,0,0,0,1.47.39,2.72,2.72,0,0,0,1.46-.39,2.79,2.79,0,0,0,1-1.07A3.28,3.28,0,0,0,197.48,39Z"/>
 <path d="M206,35.78a.36.36,0,0,1,.21.26.41.41,0,0,1-.1.33.29.29,0,0,1-.23.13.4.4,0,0,1-.28,0,4,4,0,0,0-.82-.36,3.12,3.12,0,0,0-.93-.13,3.16,3.16,0,0,0-1.2.22,2.74,2.74,0,0,0-.95.62,2.86,2.86,0,0,0-.63,1,3.39,3.39,0,0,0,0,2.48,2.94,2.94,0,0,0,.64,1,2.79,2.79,0,0,0,1,.6,3.2,3.2,0,0,0,1.17.21,3.1,3.1,0,0,0,.92-.13,3.49,3.49,0,0,0,.82-.35.49.49,0,0,1,.29-.06.41.41,0,0,1,.33.47.34.34,0,0,1-.19.25,3.7,3.7,0,0,1-.63.3,4.61,4.61,0,0,1-.75.21,4.15,4.15,0,0,1-.79.08,4.1,4.1,0,0,1-1.49-.27,3.93,3.93,0,0,1-1.23-.77,3.64,3.64,0,0,1-.85-1.19A4,4,0,0,1,200,39a3.73,3.73,0,0,1,.3-1.51,3.45,3.45,0,0,1,.83-1.19,3.79,3.79,0,0,1,1.23-.8,4,4,0,0,1,1.52-.28,4.37,4.37,0,0,1,1.15.15A3.62,3.62,0,0,1,206,35.78Z"/>
 <path d="M208.8,42.27a.42.42,0,0,1-.14.29.39.39,0,0,1-.29.11.41.41,0,0,1-.31-.11.4.4,0,0,1-.12-.29v-6.6a.35.35,0,0,1,.13-.28.43.43,0,0,1,.31-.12.4.4,0,0,1,.29.12.35.35,0,0,1,.13.28Z"/>
 <path d="M213.8,36.29l-2.6,6.15a.4.4,0,0,1-.15.19.38.38,0,0,1-.22.07.41.41,0,0,1-.28-.1.38.38,0,0,1-.1-.24.89.89,0,0,1,0-.15l2.87-6.7a.44.44,0,0,1,.16-.21.32.32,0,0,1,.23-.06.4.4,0,0,1,.24.07.38.38,0,0,1,.15.2L217,42.16a.44.44,0,0,1,0,.15.34.34,0,0,1-.12.28.41.41,0,0,1-.28.11.44.44,0,0,1-.22-.07.38.38,0,0,1-.15-.2l-2.66-6.16Zm-2,4.36.35-.76h3.31l.14.76Z"/>
 <path d="M222.9,41.9a.4.4,0,0,1,.29.11.38.38,0,0,1,.12.28.35.35,0,0,1-.12.28.39.39,0,0,1-.29.1h-3.83a.4.4,0,0,1-.3-.11.38.38,0,0,1-.12-.28V35.66a.35.35,0,0,1,.13-.27.43.43,0,0,1,.31-.12.4.4,0,0,1,.29.12.35.35,0,0,1,.13.27v6.43l-.22-.19Z"/>
 <path d="M171.43,3.51v45.9a.59.59,0,1,0,1.18,0V3.51a.59.59,0,1,0-1.18,0"/>
</svg>
